# File created by Blade
# Date/Time:  Tue Jan 27 18:01:49 2015
# Frame Rate: 120.000 fps
#------------------------------------------------------
:FULLY-SPECIFIED
:DEGREES
2139
root -1.731558 31.933179 -5.749800 7.808092 22.698807 5.012373
Spine -7.037380 -8.426205 -4.186525
Head 1.481023 -22.847339 -4.813420
LeftShoulder -11.523417 14.776149 7.840098
LeftArm 25.662820 41.393007 -70.611757
LeftForeArm -1.860993 0.000000 12.466000
LeftHand -11.367308 -0.000000 -6.940308
LeftHandThumb1 -26.253704 0.000000 33.147579
RightShoulder -11.899929 29.860116 -50.349159
RightArm 71.361050 66.184311 90.136279
RightForeArm 40.874205 -0.000000 79.338034
RightHand -3.908967 0.000000 11.533555
RightHandThumb1 -24.326973 -0.000000 -32.862282
LeftUpLeg -3.285319 -8.868895 0.006987
LeftLeg 0.637710 -0.000000 -0.000000
LeftFoot -12.851999 10.358737 -24.465153
LeftToeBase 8.641033 -0.000000 -0.000000
RightUpLeg 3.921266 -12.129980 -2.709110
RightLeg -3.695779 -0.000000 0.000000
RightFoot -17.744283 -20.552903 11.575953
RightToeBase 5.309586 -0.000000 -0.000000
2140
root -1.737521 31.930231 -5.753427 7.727418 22.607258 4.986187
Spine -6.975891 -8.349079 -4.187356
Head 1.566761 -22.947132 -4.893068
LeftShoulder -11.480742 14.752181 7.809010
LeftArm 25.675172 41.442464 -70.548612
LeftForeArm -1.873304 0.000000 12.386611
LeftHand -11.403468 -0.000000 -7.083405
LeftHandThumb1 -26.253704 0.000000 33.147579
RightShoulder -11.529426 29.998884 -49.922676
RightArm 70.609002 65.915466 89.679334
RightForeArm 41.279930 -0.000000 83.066220
RightHand -3.292557 0.000000 11.975692
RightHandThumb1 -24.326973 -0.000000 -32.862282
LeftUpLeg -3.229802 -8.881664 0.021987
LeftLeg 0.672641 -0.000000 -0.000000
LeftFoot -12.948743 10.432451 -24.522332
LeftToeBase 8.711490 -0.000000 -0.000000
RightUpLeg 3.955375 -12.071646 -2.702127
RightLeg -3.666988 -0.000000 0.000000
RightFoot -17.773647 -20.514268 11.562863
RightToeBase 5.361383 -0.000000 -0.000000
2141
root -1.743502 31.926426 -5.757081 7.654257 22.507793 4.957328
Spine -6.930192 -8.250569 -4.185962
Head 1.717847 -22.975521 -5.065504
LeftShoulder -11.449907 14.749850 7.817341
LeftArm 25.739948 41.531493 -70.489692
LeftForeArm -1.901201 -0.000000 12.298460
LeftHand -11.426800 -0.000000 -7.243564
LeftHandThumb1 -26.253704 0.000000 33.147579
RightShoulder -11.148718 30.099492 -49.451737
RightArm 70.102665 65.658977 89.422051
RightForeArm 41.260851 0.000000 86.992979
RightHand -2.684212 0.000000 12.447032
RightHandThumb1 -24.326973 -0.000000 -32.862282
LeftUpLeg -3.179715 -8.890842 0.038865
LeftLeg 0.707442 -0.000000 -0.000000
LeftFoot -13.046540 10.510777 -24.534914
LeftToeBase 8.758973 -0.000000 -0.000000
RightUpLeg 3.980480 -12.048071 -2.693721
RightLeg -3.640009 -0.000000 0.000000
RightFoot -17.785754 -20.423062 11.542948
RightToeBase 5.352017 -0.000000 -0.000000
2142
root -1.748018 31.922924 -5.760705 7.570813 22.392973 4.931249
Spine -6.870859 -8.136096 -4.165906
Head 1.772270 -23.227526 -5.244687
LeftShoulder -11.445990 14.746571 7.818947
LeftArm 25.854595 41.698386 -70.376712
LeftForeArm -2.064980 -0.000000 12.232312
LeftHand -11.459794 -0.000000 -7.539114
LeftHandThumb1 -26.253704 0.000000 33.147579
RightShoulder -10.754732 30.013358 -49.046750
RightArm 70.193729 65.476824 89.818675
RightForeArm 40.887270 -0.000000 91.089224
RightHand -1.996221 -0.000000 12.813668
RightHandThumb1 -24.326973 -0.000000 -32.862282
LeftUpLeg -3.107659 -8.878922 0.042575
LeftLeg 0.723689 -0.000000 -0.000000
LeftFoot -13.137327 10.603795 -24.535577
LeftToeBase 8.651501 -0.000000 -0.000000
RightUpLeg 4.024932 -12.037801 -2.695591
RightLeg -3.631832 -0.000000 0.000000
RightFoot -17.775255 -20.328372 11.493739
RightToeBase 5.357171 -0.000000 -0.000000
2143
root -1.753866 31.919690 -5.765532 7.511738 22.269710 4.894770
Spine -6.834619 -7.981740 -4.145655
Head 1.830794 -23.335971 -5.416506
LeftShoulder -11.426371 14.705328 7.874978
LeftArm 25.891242 41.841778 -70.369892
LeftForeArm -2.110875 0.000000 12.203716
LeftHand -11.453912 -0.000000 -7.554877
LeftHandThumb1 -26.253704 0.000000 33.147579
RightShoulder -10.409171 30.059098 -48.666886
RightArm 70.145832 65.339433 90.034972
RightForeArm 40.262276 0.000000 95.230270
RightHand -1.351081 -0.000000 13.188462
RightHandThumb1 -24.326973 -0.000000 -32.862282
LeftUpLeg -3.062716 -8.875554 0.065234
LeftLeg 0.730432 -0.000000 -0.000000
LeftFoot -13.212990 10.701818 -24.531016
LeftToeBase 8.594705 -0.000000 -0.000000
RightUpLeg 4.036932 -12.050288 -2.683968
RightLeg -3.624918 -0.000000 0.000000
RightFoot -17.757602 -20.182579 11.444562
RightToeBase 5.354093 -0.000000 -0.000000
2144
root -1.759626 31.917851 -5.769600 7.472659 22.138142 4.859052
Spine -6.821060 -7.814288 -4.126207
Head 1.900469 -23.401946 -5.617108
LeftShoulder -11.417294 14.684619 7.946747
LeftArm 25.916143 41.953120 -70.394683
LeftForeArm -2.131113 -0.000000 12.227107
LeftHand -11.385081 -0.000000 -7.383989
LeftHandThumb1 -26.253704 0.000000 33.147579
RightShoulder -10.077895 30.214343 -48.331554
RightArm 69.850178 65.267646 89.986008
RightForeArm 39.722150 -0.000000 99.461079
RightHand -1.030683 0.000000 13.090861
RightHandThumb1 -24.326973 -0.000000 -32.862282
LeftUpLeg -3.036740 -8.820544 0.084936
LeftLeg 0.744508 -0.000000 -0.000000
LeftFoot -13.292896 10.759233 -24.527762
LeftToeBase 8.670734 -0.000000 -0.000000
RightUpLeg 4.032322 -12.073889 -2.669536
RightLeg -3.626813 -0.000000 0.000000
RightFoot -17.718779 -20.027677 11.388878
RightToeBase 5.293569 -0.000000 -0.000000
2145
root -1.765753 31.917751 -5.772573 7.419009 22.017659 4.820244
Spine -6.789742 -7.643290 -4.101600
Head 1.950229 -23.481857 -5.827809
LeftShoulder -11.409020 14.700423 8.002949
LeftArm 25.952901 41.991591 -70.415750
LeftForeArm -2.069700 -0.000000 12.290771
LeftHand -11.345486 -0.000000 -7.476923
LeftHandThumb1 -26.253704 0.000000 33.147579
RightShoulder -9.760868 30.209143 -48.060954
RightArm 69.908973 65.259861 90.319556
RightForeArm 39.254999 0.000000 103.789861
RightHand -0.589486 -0.000000 12.883511
RightHandThumb1 -24.326973 -0.000000 -32.862282
LeftUpLeg -2.993384 -8.785266 0.112269
LeftLeg 0.744171 -0.000000 -0.000000
LeftFoot -13.351470 10.826280 -24.586384
LeftToeBase 8.663147 -0.000000 -0.000000
RightUpLeg 4.044180 -12.141437 -2.653410
RightLeg -3.630742 -0.000000 0.000000
RightFoot -17.646870 -19.856198 11.313964
RightToeBase 5.268689 -0.000000 -0.000000
2146
root -1.771002 31.918207 -5.775522 7.392579 21.891165 4.785472
Spine -6.786158 -7.450564 -4.075788
Head 2.013044 -23.484983 -6.045734
LeftShoulder -11.386178 14.739655 8.048637
LeftArm 25.966700 41.976171 -70.453633
LeftForeArm -2.022252 -0.000000 12.415454
LeftHand -11.320345 -0.000000 -7.509000
LeftHandThumb1 -26.253704 0.000000 33.147579
RightShoulder -9.500896 30.280203 -47.814791
RightArm 70.034962 65.224295 90.663438
RightForeArm 38.984606 0.000000 108.062247
RightHand -0.093716 0.000000 13.001671
RightHandThumb1 -24.326973 -0.000000 -32.862282
LeftUpLeg -2.973006 -8.730051 0.135156
LeftLeg 0.742856 -0.000000 -0.000000
LeftFoot -13.370497 10.893823 -24.542875
LeftToeBase 8.623491 -0.000000 -0.000000
RightUpLeg 4.034146 -12.211355 -2.639342
RightLeg -3.644658 -0.000000 0.000000
RightFoot -17.577147 -19.652510 11.263022
RightToeBase 5.285915 -0.000000 -0.000000
2147
root -1.778218 31.919291 -5.780308 7.403772 21.752330 4.742892
Spine -6.827204 -7.252879 -4.044003
Head 2.054326 -23.539719 -6.257326
LeftShoulder -11.366914 14.807815 8.098574
LeftArm 25.971339 41.922981 -70.507933
LeftForeArm -1.944125 0.000000 12.578795
LeftHand -11.343236 -0.000000 -7.473441
LeftHandThumb1 -26.253704 0.000000 33.147579
RightShoulder -9.227732 30.427899 -47.574207
RightArm 70.097978 65.251937 90.877360
RightForeArm 38.625032 -0.000000 112.360046
RightHand 0.117606 -0.000000 12.862692
RightHandThumb1 -24.326973 -0.000000 -32.862282
LeftUpLeg -2.997096 -8.652619 0.168106
LeftLeg 0.741419 -0.000000 -0.000000
LeftFoot -13.423244 10.944559 -24.634746
LeftToeBase 8.671138 -0.000000 -0.000000
RightUpLeg 3.968344 -12.275762 -2.606784
RightLeg -3.639871 -0.000000 0.000000
RightFoot -17.508742 -19.447594 11.218249
RightToeBase 5.275307 -0.000000 -0.000000
2148
root -1.785165 31.923366 -5.784100 7.414661 21.644320 4.697381
Spine -6.835336 -7.074047 -3.994696
Head 2.047080 -23.426153 -6.486390
LeftShoulder -11.375922 14.832724 8.080375
LeftArm 25.954757 41.874293 -70.512273
LeftForeArm -1.932862 -0.000000 12.779422
LeftHand -11.416271 -0.000000 -7.419578
LeftHandThumb1 -26.253704 0.000000 33.147579
RightShoulder -9.131014 30.531800 -47.431428
RightArm 70.600627 65.154768 91.529824
RightForeArm 38.569727 0.000000 116.565968
RightHand 0.460397 0.000000 12.772612
RightHandThumb1 -24.326973 -0.000000 -32.862282
LeftUpLeg -3.032049 -8.576606 0.210610
LeftLeg 0.757590 -0.000000 -0.000000
LeftFoot -13.417961 10.994991 -24.599433
LeftToeBase 8.609435 -0.000000 -0.000000
RightUpLeg 3.895949 -12.397758 -2.568342
RightLeg -3.611910 -0.000000 0.000000
RightFoot -17.416917 -19.234129 11.159233
RightToeBase 5.231442 -0.000000 -0.000000
